<svg width='64' height='64' viewBox="0 0 43 51" fill="none" xmlns="http://www.w3.org/2000/svg"><path d="M41.55 31.325C40.55 28.1125 39.4 25.4125 37.6312 20.9937C37.9062 9.3875 33.0812 0 21.9687 0C10.7312 0 6.01247 9.575 6.31247 20.9937C4.53747 25.4188 3.39372 28.1 2.39372 31.325C0.268715 38.1688 0.956215 41 1.48121 41.0625C2.60621 41.2 5.86247 35.9125 5.86247 35.9125C5.86247 38.975 7.43747 42.9688 10.85 45.85C9.19997 46.3562 5.49372 47.7188 6.37497 49.2125C7.08747 50.4188 18.6375 49.9813 21.9687 49.6063C25.3 49.9813 36.85 50.4188 37.5625 49.2125C38.4437 47.725 34.7312 46.3562 33.0875 45.85C36.5 42.9625 38.075 38.9688 38.075 35.9125C38.075 35.9125 41.3312 41.2 42.4562 41.0625C42.9875 40.9938 43.675 38.1625 41.55 31.325Z" fill="#3586D1"/></svg>
