<svg
  viewBox="0 0 43 38"
  preserveAspectRatio="none"
  fill="none"
  xmlns="http://www.w3.org/2000/svg"
>
  <path
    d="M41.261 26.9016H13.3469L14.7485 24.0469L38.036 24.0047C38.8235 24.0047 39.4985 23.4422 39.6391 22.6641L42.8641 4.6125C42.9485 4.13906 42.8219 3.65156 42.5125 3.28125C42.3596 3.099 42.1689 2.9522 41.9536 2.85102C41.7383 2.74984 41.5035 2.69671 41.2656 2.69531L11.6406 2.59687L11.3875 1.40625C11.2281 0.646875 10.5438 0.09375 9.76565 0.09375H2.52346C2.08461 0.09375 1.66374 0.268082 1.35342 0.578397C1.04311 0.888711 0.868774 1.30959 0.868774 1.74844C0.868774 2.18729 1.04311 2.60816 1.35342 2.91848C1.66374 3.22879 2.08461 3.40313 2.52346 3.40313H8.42502L9.53127 8.6625L12.2547 21.8484L8.74846 27.5719C8.56638 27.8176 8.4567 28.1094 8.43185 28.4143C8.407 28.7191 8.46796 29.0249 8.60784 29.2969C8.88909 29.8547 9.45627 30.2063 10.0844 30.2063H13.0281C12.4006 31.0398 12.0616 32.0551 12.0625 33.0984C12.0625 35.7516 14.2188 37.9078 16.8719 37.9078C19.525 37.9078 21.6813 35.7516 21.6813 33.0984C21.6813 32.0531 21.3344 31.0359 20.7156 30.2063H28.2672C27.6396 31.0398 27.3007 32.0551 27.3016 33.0984C27.3016 35.7516 29.4578 37.9078 32.111 37.9078C34.7641 37.9078 36.9203 35.7516 36.9203 33.0984C36.9203 32.0531 36.5735 31.0359 35.9547 30.2063H41.2656C42.175 30.2063 42.9203 29.4656 42.9203 28.5516C42.9176 28.1132 42.7416 27.6937 42.4307 27.3845C42.1199 27.0754 41.6994 26.9018 41.261 26.9016ZM12.3297 5.85938L39.3203 5.94844L36.6766 20.7516L15.475 20.7891L12.3297 5.85938ZM16.8719 34.5797C16.0563 34.5797 15.3906 33.9141 15.3906 33.0984C15.3906 32.2828 16.0563 31.6172 16.8719 31.6172C17.6875 31.6172 18.3531 32.2828 18.3531 33.0984C18.3531 33.4913 18.1971 33.8681 17.9193 34.1458C17.6415 34.4236 17.2647 34.5797 16.8719 34.5797ZM32.111 34.5797C31.2953 34.5797 30.6297 33.9141 30.6297 33.0984C30.6297 32.2828 31.2953 31.6172 32.111 31.6172C32.9266 31.6172 33.5922 32.2828 33.5922 33.0984C33.5922 33.4913 33.4361 33.8681 33.1584 34.1458C32.8806 34.4236 32.5038 34.5797 32.111 34.5797Z"
    fill="#535353"
  />
</svg>
